<?xml version="1.0" encoding="UTF-8"?>
<svg width="60px" height="60px" viewBox="0 0 60 60" version="1.1" xmlns="http://www.w3.org/2000/svg" xmlns:xlink="http://www.w3.org/1999/xlink">
    <!-- Generator: Sketch 59.1 (86144) - https://sketch.com -->
    <title>All-Electric</title>
    <desc>Created with Sketch.</desc>
    <defs>
        <polygon id="path-1" points="1.41340612e-15 0.188372093 53 0.188372093 53 53.9372093 1.41340612e-15 53.9372093"></polygon>
    </defs>
    <g id="All-Electric" stroke="none" stroke-width="1" fill="none" fill-rule="evenodd">
        <g id="ALL_Electric_Icon_Alt_4C_R01" transform="translate(4.000000, 3.000000)">
            <mask id="mask-2" fill="white">
                <use xlink:href="#path-1"></use>
            </mask>
            <g id="Clip-2"></g>
            <path d="M6.30633226,25.0470362 L2.41777903,25.0470362 C3.43677111,13.2904614 12.6970634,3.89703305 24.2888741,2.86618515 L24.2888741,6.80392342 C14.81262,7.79701132 7.28188375,15.4358585 6.30633226,25.0470362 Z M24.2888741,47.5318553 L24.2888741,51.5268629 C12.6970634,50.4928683 3.43677111,41.1044746 2.41777903,29.3478998 L6.31564095,29.3478998 C7.31539506,38.9313868 14.831858,46.5425434 24.2888741,47.5318553 Z M50.4016322,29.3478998 C49.3838813,41.1044746 40.1235891,50.4928683 28.5317784,51.5268629 L28.5317784,47.5261913 C37.9676947,46.5167407 45.4636785,38.9169122 46.4634326,29.3478998 L50.4016322,29.3478998 Z M28.5317784,6.80958742 L28.5317784,2.86618515 C40.1235891,3.89703305 49.3838813,13.2904614 50.4016322,25.0470362 L46.4727413,25.0470362 C45.498431,15.4497039 37.9875533,7.82218465 28.5317784,6.80958742 Z M36.2747529,22.2446152 C36.2747529,22.2446152 21.2101775,22.2339165 20.863894,22.2339165 C20.518231,22.2339165 19.7983584,22.5429192 19.7772587,23.1816924 C19.7586413,23.7355057 19.7772587,25.0936069 19.7772587,25.0936069 L35.428282,25.1017882 L35.428282,29.2862251 L19.7772587,29.3013291 C19.7772587,29.3013291 19.7586413,30.655025 19.7772587,31.2088383 C19.7983584,31.8450942 20.518231,32.1559848 20.863894,32.1559848 C21.2101775,32.1559848 36.2747529,32.1710888 36.2747529,32.1710888 L36.2747529,36.2126671 C36.2747529,36.2126671 23.2376118,36.2051151 21.2989204,36.2051151 C16.9225914,36.2051151 15.7652101,32.0565502 15.6777083,30.704113 C15.6187532,29.7387158 15.5691068,27.191804 15.5691068,27.191804 C15.5647628,25.5404335 15.6187532,24.6499269 15.6777083,23.6876764 C15.7652101,22.3327218 16.9225914,18.1866743 21.2989204,18.1866743 C23.2376118,18.1866743 36.2747529,18.1803809 36.2747529,18.1803809 L36.2747529,22.2446152 Z M26.4993794,0.188372093 C11.8630041,0.188372093 0,12.2212242 0,27.061532 C0,41.9049865 11.8630041,53.9372093 26.4993794,53.9372093 C41.1345136,53.9372093 53,41.9049865 53,27.061532 C53,12.2212242 41.1345136,0.188372093 26.4993794,0.188372093 L26.4993794,0.188372093 Z" id="Fill-1" fill="#009CC8" mask="url(ford/css/#mask-2)"></path>
        </g>
    </g>
</svg>