<?xml version="1.0" encoding="UTF-8"?>
<svg width="60px" height="60px" viewBox="0 0 60 60" version="1.1" xmlns="http://www.w3.org/2000/svg" xmlns:xlink="http://www.w3.org/1999/xlink">
    <!-- Generator: Sketch 59.1 (86144) - https://sketch.com -->
    <title>Hybrid</title>
    <desc>Created with Sketch.</desc>
    <g id="Hybrid" stroke="none" stroke-width="1" fill="none" fill-rule="evenodd">
        <path d="M35.5170538,22.8333765 L39.795757,22.8333765 L39.795757,39.2368702 L35.5170538,39.2368702 L35.5170538,33.2826963 L25.4834869,33.2826963 L25.4834869,39.2368702 L21.2047838,39.2368702 L21.2047838,22.8333765 L25.4834869,22.8333765 L25.4834869,28.7787644 L35.5170538,28.7787644 L35.5170538,22.8333765 Z M56,22.3523421 L50.1970123,12.1490307 L40.9328873,12.1468342 L36.2989323,4 L24.6962012,4 L20.0692755,12.1468342 L10.8046099,12.1490307 L5,22.3523421 L9.63287355,30.5035693 L5,38.6504036 L10.8046099,48.8531658 L20.0660312,48.8520675 L24.6962012,57 L36.2989323,57 L40.9328873,48.8487728 L50.1970123,48.8531658 L56,38.6504036 L51.366045,30.5002746 L56,22.3523421 L56,22.3523421 Z" id="Fill-1" fill="#6AAD40"></path>
    </g>
</svg>